HIERARCHY
ROOT Hips
{
	OFFSET -3.958830 18.904000 13.208200
	CHANNELS 6 Xposition Yposition Zposition Zrotation Yrotation Xrotation 
	JOINT LHipJoint
	{
		OFFSET 0.000000 0.000000 0.000000
		CHANNELS 3 Zrotation Yrotation Xrotation
		JOINT LeftUpLeg
		{
			OFFSET 1.800000 -1.400000 0.085000
			CHANNELS 3 Zrotation Yrotation Xrotation
			JOINT LeftLeg
			{
				OFFSET 2.215000 -6.000000 0.000000
				CHANNELS 3 Zrotation Yrotation Xrotation
				JOINT LeftFoot
				{
					OFFSET 2.500000 -6.900000 0.000000
					CHANNELS 3 Zrotation Yrotation Xrotation
					JOINT LeftToeBase
					{
						OFFSET 0.200000 -0.500000 1.950000
						CHANNELS 3 Zrotation Yrotation Xrotation
						End Site
						{
							OFFSET 0.000000 0.000000 0.000000
						}
					}
				}
			}
		}
	}
	JOINT RHipJoint
	{
		OFFSET 0.000000 0.000000 0.000000
		CHANNELS 3 Zrotation Yrotation Xrotation
		JOINT RightUpLeg
		{
			OFFSET -1.800000 -1.400000 0.085000
			CHANNELS 3 Zrotation Yrotation Xrotation
			JOINT RightLeg
			{
				OFFSET -2.215000 -6.000000 0.000000
				CHANNELS 3 Zrotation Yrotation Xrotation
				JOINT RightFoot
				{
					OFFSET -2.500000 -6.900000 0.000000
					CHANNELS 3 Zrotation Yrotation Xrotation
					JOINT RightToeBase
					{
						OFFSET -0.200000 -0.500000 1.950000
						CHANNELS 3 Zrotation Yrotation Xrotation
						End Site
						{
							OFFSET 0.000000 0.000000 0.000000
						}
					}
				}
			}
		}
	}
	JOINT LowerBack
	{
		OFFSET 0.000000 0.000000 0.000000
		CHANNELS 3 Zrotation Yrotation Xrotation
		JOINT Spine
		{
			OFFSET -0.087000 1.940000 -0.288900
			CHANNELS 3 Zrotation Yrotation Xrotation
			JOINT Spine1
			{
				OFFSET 0.000000 1.950000 0.060000
				CHANNELS 3 Zrotation Yrotation Xrotation
				JOINT Neck
				{
					OFFSET 0.000000 0.000000 0.000000
					CHANNELS 3 Zrotation Yrotation Xrotation
					JOINT Neck1
					{
						OFFSET 0.000000 1.600000 0.340000
						CHANNELS 3 Zrotation Yrotation Xrotation
						JOINT Head
						{
							OFFSET 0.000000 1.667000 -0.240000
							CHANNELS 3 Zrotation Yrotation Xrotation
							End Site
							{
								OFFSET 0.000000 0.000000 0.000000
							}
						}
					}
				}
				JOINT LeftShoulder
				{
					OFFSET 0.000000 0.000000 0.000000
					CHANNELS 3 Zrotation Yrotation Xrotation
					JOINT LeftArm
					{
						OFFSET 2.700000 1.550000 -0.730000
						CHANNELS 3 Zrotation Yrotation Xrotation
						JOINT LeftForeArm
						{
							OFFSET 5.450000 0.000000 0.000000
							CHANNELS 3 Zrotation Yrotation Xrotation
							JOINT LeftHand
							{
								OFFSET 3.450000 0.000000 0.000000
								CHANNELS 3 Zrotation Yrotation Xrotation
								JOINT LeftHandIndex1
								{
									OFFSET 0.750000 0.000000 0.000000
									CHANNELS 3 Zrotation Yrotation Xrotation
									End Site
									{
										OFFSET 0.000000 0.000000 0.000000
									}
								}
							}
						}
					}
				}
				JOINT RightShoulder
				{
					OFFSET 0.000000 0.000000 0.000000
					CHANNELS 3 Zrotation Yrotation Xrotation
					JOINT RightArm
					{
						OFFSET -2.700000 1.550000 -0.730000
						CHANNELS 3 Zrotation Yrotation Xrotation
						JOINT RightForeArm
						{
							OFFSET -5.450000 0.000000 0.000000
							CHANNELS 3 Zrotation Yrotation Xrotation
							JOINT RightHand
							{
								OFFSET -3.450000 0.000000 0.000000
								CHANNELS 3 Zrotation Yrotation Xrotation
								JOINT RightHandIndex1
								{
									OFFSET -0.750000 0.000000 0.000000
									CHANNELS 3 Zrotation Yrotation Xrotation
									End Site
									{
										OFFSET 0.000000 0.000000 0.000000
									}
								}
							}
						}
					}
				}
			}
		}
	}
}
MOTION
Frames: 8
Frame Time: 0.016667
-0.003090 16.925300 -2.257210 -0.738215 0.338829 9.451083 -14.934319 12.047726 3.307697 7.358776 -4.269119 -31.208468 -5.861904 7.069888 23.595128 -0.559369 5.130501 3.016057 -0.049490 -0.585430 -0.008010 18.616537 -10.822037 2.897039 -6.778110 3.851282 -23.205007 13.069264 -6.415241 15.883862 0.236672 -3.920108 3.131200 -0.086440 0.904540 0.355380 -4.474419 0.324376 -6.989247 11.732337 1.748669 3.638999 -6.893554 2.375331 4.109902 2.013960 -2.976740 -5.374637 -4.725034 1.252922 24.729046 -4.700070 -0.358410 6.957120 -18.335701 1.040636 0.117194 -53.252155 -3.406103 -3.626192 -20.911867 -17.868234 0.893877 -4.471892 3.036222 0.061940 0.691380 -0.616260 0.173000 13.791950 2.017169 2.062697 58.703496 7.715040 -4.234468 32.550086 28.043137 4.494861 2.078991 -1.824091 -0.417260 0.187180 0.255040 -0.124410 
0.003030 16.929680 -2.282240 -0.576366 1.156562 9.605096 -14.937261 12.006020 3.336762 7.257517 -4.373195 -31.622828 -5.753300 7.073572 23.901777 -0.557976 5.140921 3.005726 -0.034850 -0.560660 -0.004330 18.619342 -10.808819 2.901479 -6.946238 3.852886 -23.328098 13.176822 -6.360275 15.567306 0.233620 -3.898641 3.131354 -0.071870 0.893880 0.353870 -4.483544 0.361457 -7.008320 11.745447 1.673748 3.681164 -7.027917 2.317704 4.176506 2.076521 -2.872210 -5.333323 -4.527361 0.938508 24.702138 -4.717760 -0.676880 6.672270 -18.509646 0.920697 0.105810 -53.096474 -3.469593 -3.568431 -20.739112 -17.609139 0.839788 -4.463665 3.039012 0.059560 0.684070 -0.608250 0.176780 13.838406 2.078113 2.030015 58.581806 8.084316 -4.072538 32.930323 28.875909 4.788141 2.075437 -1.838336 -0.410090 0.187730 0.247140 -0.120530 
0.011490 16.937250 -2.332280 -0.590458 2.480994 9.918652 -14.920217 11.906700 3.397351 7.597589 -4.406914 -32.465223 -5.807697 7.263572 24.631547 -0.544174 5.234490 2.962844 0.007740 -0.500550 0.018340 18.647943 -10.819615 2.907907 -6.639015 3.940614 -23.611564 12.735603 -6.101007 15.129899 0.232147 -3.780522 3.181225 -0.042270 0.866730 0.338090 -4.564570 0.539293 -7.055973 12.402036 1.602703 3.826544 -7.591890 2.324567 4.211764 2.294243 -2.745963 -5.282090 -4.245689 0.394122 24.770893 -4.755730 -1.222050 5.955260 -18.751771 0.848758 0.067885 -52.977415 -3.347770 -3.599466 -20.182178 -17.078562 0.695968 -4.433696 3.019845 0.067180 0.662630 -0.587510 0.191860 13.583666 2.120334 2.017615 58.657158 8.805357 -3.779263 33.778425 30.526644 5.406699 2.063166 -1.859620 -0.398770 0.201350 0.216470 -0.118620 
0.022700 16.951120 -2.397770 -0.483941 4.168944 10.069913 -14.907295 11.816596 3.491130 8.167728 -4.412481 -33.283726 -6.286718 7.776506 25.940964 -0.531436 5.516179 2.831902 0.017280 -0.484370 0.026730 18.668865 -10.815877 2.907923 -6.448857 4.008741 -23.782973 12.155633 -5.786983 14.479783 0.242994 -3.610307 3.240414 -0.032970 0.840570 0.314430 -4.632125 0.664890 -7.150711 12.964809 1.540602 4.353578 -8.074860 2.405993 4.142901 2.417346 -2.761645 -5.330584 -4.314598 -0.009328 25.409225 -4.163940 -2.198450 4.685400 -19.017109 0.568122 0.100635 -53.149210 -3.152799 -3.681812 -18.980261 -16.216213 0.378090 -4.408491 2.950625 0.109740 0.622770 -0.561930 0.176630 13.523295 2.538452 2.116286 58.262696 9.607831 -3.615645 34.658924 32.621029 6.237156 2.056417 -1.821863 -0.407120 0.234710 0.226310 -0.124550 
0.038100 16.965960 -2.474970 -0.374209 6.088065 10.086079 -14.897656 11.698230 3.606928 8.695609 -4.479593 -34.404265 -6.295341 8.454367 28.568894 -0.480174 5.976172 2.628084 0.041560 -0.459180 0.051550 18.690629 -10.811992 2.909011 -6.514301 4.079391 -23.898648 11.930786 -5.614369 13.952879 0.236633 -3.509500 3.266934 -0.027560 0.796060 0.314050 -4.701419 0.841763 -7.269485 13.496250 1.594242 4.983676 -8.546836 2.579026 4.028874 2.736875 -2.417770 -5.313245 -3.792688 -0.597819 26.380146 -3.980180 -2.896300 3.664200 -19.478038 0.340057 0.047440 -52.869289 -3.101972 -3.580138 -18.273476 -15.149451 0.149820 -4.386090 2.915814 0.146330 0.587210 -0.527860 0.159950 13.284122 2.670298 2.144996 57.671098 10.497806 -3.259197 35.983051 34.733583 7.273230 2.047888 -1.812971 -0.393180 0.233690 0.226100 -0.136000 
0.051590 16.986750 -2.559380 -0.272360 8.144682 9.934397 -14.893585 11.570027 3.744727 9.126956 -4.615156 -35.813826 -5.418876 9.226350 32.846226 -0.385516 6.677849 2.352963 0.056470 -0.452460 0.073410 18.710638 -10.802967 2.903105 -6.726553 4.101263 -23.790023 11.892643 -5.480814 13.277772 0.220976 -3.439019 3.280204 -0.032100 0.757230 0.318030 -4.764758 1.028921 -7.418102 13.983963 1.656931 5.729186 -8.888777 2.776700 3.907110 3.079604 -1.899581 -5.403710 -3.005444 -1.458075 27.592031 -4.117670 -3.612840 3.074020 -20.211422 -0.285410 0.204062 -52.399633 -2.783611 -3.647377 -17.390445 -14.346837 -0.070362 -4.355839 2.885215 0.189270 0.553710 -0.493110 0.152040 13.285043 3.145511 2.213815 56.901336 11.513120 -2.985139 36.160888 36.561596 7.937059 2.044170 -1.796590 -0.387540 0.230220 0.222570 -0.148090 
0.062900 17.005240 -2.643050 -0.361068 9.841791 9.496120 -14.891876 11.446168 3.901053 10.006332 -4.559743 -37.116914 -4.484726 10.298837 37.963903 -0.236970 7.599395 1.986285 0.102240 -0.414410 0.130590 18.727186 -10.782925 2.893895 -6.879749 4.128523 -23.424659 11.944612 -5.356280 12.564275 0.181550 -3.360854 3.287497 -0.031270 0.674080 0.324150 -4.816727 1.205259 -7.616275 14.482498 1.756291 6.825228 -8.897967 3.051609 3.694884 3.378840 -1.392519 -5.594918 -2.273867 -2.239738 29.307232 -4.244310 -4.201610 1.872450 -20.929008 -0.874740 0.489731 -52.271688 -2.035201 -4.046165 -16.347560 -14.225364 -0.247985 -4.289015 2.863541 0.250360 0.490820 -0.428070 0.137470 13.362655 3.729283 2.263193 55.666716 12.579315 -2.759655 36.399483 38.372903 8.672507 2.051174 -1.775891 -0.361270 0.209980 0.199540 -0.169520 
0.072280 17.024620 -2.731710 -0.218699 11.378552 9.030409 -14.915602 11.319694 4.104345 10.783169 -4.564851 -38.646612 -3.259879 11.424835 43.657946 -0.060233 8.639389 1.586146 0.149130 -0.366610 0.183210 18.720386 -10.724187 2.869981 -7.411761 4.127719 -23.037514 12.198462 -5.305082 11.994988 0.134015 -3.312720 3.275165 -0.019950 0.587400 0.318880 -4.795643 1.300121 -7.851225 14.373964 1.821699 8.227535 -8.754450 3.329845 3.402719 3.643426 -0.827102 -5.833661 -1.434433 -2.999050 31.094599 -4.065320 -4.871660 0.255190 -21.909314 -1.675338 0.831584 -51.862402 -1.216326 -4.474472 -15.260367 -14.219453 -0.418246 -4.209534 2.838447 0.319200 0.417960 -0.359340 0.121660 13.815304 4.561428 2.302624 54.072913 13.636192 -2.651755 36.626870 40.258875 9.436355 2.058641 -1.744132 -0.342690 0.201760 0.179210 -0.191150 
